<?xml version="1.0" standalone="no"?>
<!DOCTYPE svg PUBLIC "-//W3C//DTD SVG 20010904//EN"
 "http://www.w3.org/TR/2001/REC-SVG-20010904/DTD/svg10.dtd">
<svg version="1.0" xmlns="http://www.w3.org/2000/svg"
 width="96.000000pt" height="96.000000pt" viewBox="0 0 96.000000 96.000000"
 preserveAspectRatio="xMidYMid meet">

<g transform="translate(0.000000,96.000000) scale(0.100000,-0.100000)"
fill="white" stroke="none">
<path d="M387 860 c-109 -28 -211 -113 -261 -220 -28 -58 -31 -75 -31 -160 0
-85 3 -102 31 -160 39 -83 111 -155 194 -194 58 -28 75 -31 160 -31 88 0 101
3 162 33 85 42 148 105 190 190 30 61 33 74 33 162 0 85 -3 102 -31 160 -63
134 -188 219 -332 226 -42 2 -94 -1 -115 -6z m225 -77 c65 -30 133 -95 165
-162 37 -75 40 -200 6 -273 -30 -66 -96 -133 -162 -165 -48 -24 -68 -28 -141
-28 -73 0 -93 4 -141 28 -223 109 -253 402 -57 560 85 68 227 85 330 40z"/>
<path d="M406 696 c-74 -44 -96 -128 -52 -200 l23 -39 -34 -30 c-40 -35 -59
-68 -68 -120 -7 -36 -7 -37 24 -37 21 0 31 5 31 15 0 36 41 95 80 115 50 25
90 25 140 0 39 -20 80 -79 80 -115 0 -10 10 -15 31 -15 31 0 31 1 24 37 -9 52
-28 85 -68 120 l-34 30 23 39 c30 49 30 95 2 146 -42 74 -130 98 -202 54z
m135 -65 c20 -20 29 -39 29 -61 0 -43 -47 -90 -90 -90 -43 0 -90 47 -90 90 0
22 9 41 29 61 20 20 39 29 61 29 22 0 41 -9 61 -29z"/>
</g>
</svg>
